# Blender 4.1.1
# www.blender.org
mtllib spider_back_1.mtl
o spider_back_1_indiv
v 0.000297 0.349649 0.061954
v -0.025003 -0.014834 0.020692
v -0.026780 0.361593 0.053110
v -0.040638 0.000489 0.004846
v -0.035679 0.359510 0.023604
v -0.031373 0.009068 -0.019045
v -0.017501 0.345481 0.002943
v -0.006472 0.002324 -0.027093
v 0.009576 0.333537 0.011787
v 0.009163 -0.012997 -0.011248
v 0.018476 0.335620 0.041292
v -0.000103 -0.021576 0.012644
v 0.002675 0.383474 -0.003051
v -0.016195 0.389219 -0.001639
v -0.022032 0.382233 -0.007260
v -0.008485 0.369203 -0.014430
v 0.010733 0.363429 -0.015815
v 0.016055 0.370709 -0.010060
v -0.007390 0.298151 0.048105
v -0.022513 0.305395 0.035223
v -0.019812 0.303647 0.015421
v -0.001991 0.294654 0.008503
v 0.013137 0.287406 0.021347
v 0.010436 0.289156 0.041148
v -0.016714 0.008840 0.044585
v -0.038353 0.031395 0.022817
v -0.024475 0.045345 -0.009656
v 0.010986 0.036774 -0.020369
v 0.032626 0.014264 0.001328
v 0.018805 0.000282 0.033812
vn -0.5481 0.4721 0.6904
vn -0.9513 -0.0247 0.3072
vn -0.2931 -0.0448 0.9550
vn 0.2697 0.3922 0.8794
vn -0.7006 0.1088 -0.7052
vn -0.5208 0.5899 -0.6171
vn -0.8076 0.4728 0.3524
vn -0.9306 0.0295 0.3648
vn -0.4554 -0.3169 -0.8320
vn 0.1368 0.0843 -0.9870
vn -0.8171 0.0221 -0.5761
vn -0.9919 0.0423 -0.1195
vn 0.9988 -0.0071 -0.0476
vn 0.9953 -0.0468 -0.0845
vn 0.1898 0.1194 -0.9745
vn 0.3549 0.1131 -0.9280
vn 0.9162 0.1294 0.3793
vn 0.6961 -0.0142 0.7178
vn 0.9607 0.0664 -0.2695
vn 0.7440 -0.2580 -0.6163
vn -0.0560 -0.0775 0.9954
vn -0.3811 0.0005 0.9245
vn 0.7016 -0.3058 0.6436
vn 0.6928 -0.0968 0.7146
vn -0.5481 0.4720 0.6905
vn -0.0311 0.7631 0.6456
vn -0.9701 -0.1916 -0.1490
vn -0.9919 0.0422 -0.1195
vn -0.5700 -0.6203 -0.5389
vn 0.1260 -0.7294 -0.6724
vn 0.7440 -0.2579 -0.6164
vn 0.9162 0.1294 0.3792
vn 0.9804 0.1785 0.0829
vn 0.6196 0.6198 0.4816
vn 0.2696 0.3923 0.8795
vn -0.5699 -0.6203 -0.5388
vn -0.9701 -0.1917 -0.1490
vn 0.9162 0.1295 0.3793
vn 0.7441 -0.2580 -0.6163
vn 0.1261 -0.7294 -0.6723
vn -0.8077 0.4729 0.3523
vn -0.3811 0.0004 0.9245
vn -0.0561 -0.0775 0.9954
vn -0.8171 0.0222 -0.5761
vn -0.5208 0.5899 -0.6170
vn 0.1369 0.0843 -0.9870
vn 0.7441 -0.2579 -0.6163
vn 0.9607 0.0664 -0.2694
vn 0.6928 -0.0969 0.7146
vn 0.2696 0.3923 0.8794
vn -0.2931 -0.0447 0.9550
vn -0.9306 0.0296 0.3648
vn -0.8171 0.0222 -0.5760
vn -0.7006 0.1089 -0.7052
vn -0.0560 -0.0776 0.9954
vn 0.1368 0.0844 -0.9870
vn 0.3549 0.1132 -0.9280
vn 0.7016 -0.3058 0.6437
vn 0.9953 -0.0468 -0.0846
vn 0.9988 -0.0071 -0.0477
vt 0.858239 0.323000
vt 0.853199 0.300570
vt 0.862159 0.296179
vt 0.866672 0.316903
vt 0.529498 0.941530
vt 0.534177 0.956451
vt 0.522246 0.961949
vt 0.518148 0.947798
vt 0.755936 0.540522
vt 0.761816 0.562922
vt 0.754592 0.558520
vt 0.742363 0.539273
vt 0.481902 0.952096
vt 0.481518 0.968772
vt 0.468991 0.966765
vt 0.466522 0.950358
vt 0.781557 0.549001
vt 0.777938 0.567175
vt 0.769513 0.567098
vt 0.768305 0.546286
vt 0.506590 0.952254
vt 0.509187 0.966141
vt 0.495329 0.968550
vt 0.494587 0.954001
vt 0.861753 0.347790
vt 0.856914 0.347334
vt 0.848107 0.327621
vt 0.758002 0.527033
vt 0.766245 0.528492
vt 0.878134 0.315576
vt 0.878978 0.343476
vt 0.870705 0.345628
vt 0.749836 0.524768
vt 0.770631 0.527883
vt 0.844744 0.300844
vt 0.542580 0.935652
vt 0.544930 0.951252
vt 0.775136 0.688815
vt 0.760179 0.682965
vt 0.871150 0.292941
vt 0.848949 0.185118
vt 0.834264 0.191426
vt 0.748106 0.672250
vt 0.877645 0.172016
vt 0.862031 0.175590
vt 0.733533 0.665492
s 0
usemtl default.006
f 3/1/1 20/2/2 19/3/3 1/4/4
f 27/5/5 6/6/6 4/7/7 26/8/8
f 7/9/9 22/10/10 21/11/11 5/12/12
f 29/13/13 10/14/14 8/15/15 28/16/16
f 11/17/17 24/18/18 23/19/19 9/20/20
f 25/21/21 2/22/22 12/23/23 30/24/24
f 3/1/25 14/25/26 15/26/27 5/27/28
f 7/9/9 16/28/29 17/29/30 9/20/31
f 11/30/32 18/31/33 13/32/34 1/4/35
f 14/25/26 3/1/25 1/4/35 13/32/34
f 16/28/36 7/9/9 5/12/28 15/33/37
f 18/34/33 11/17/38 9/20/39 17/29/40
f 26/8/8 4/7/41 2/22/42 25/21/43
f 20/2/2 3/1/1 5/27/28 21/35/44
f 28/36/16 8/37/15 6/6/45 27/5/5
f 22/10/46 7/9/9 9/20/47 23/19/48
f 24/18/18 30/38/49 29/39/13 23/19/19
f 24/40/18 11/30/32 1/4/50 19/3/51
f 26/41/52 20/2/2 21/35/53 27/42/54
f 28/43/16 22/10/10 23/19/19 29/39/13
f 30/44/24 24/40/18 19/3/3 25/45/55
f 25/45/21 19/3/3 20/2/2 26/41/8
f 27/46/5 21/11/11 22/10/56 28/43/57
f 30/24/24 12/23/58 10/14/59 29/13/60
