# Blender 4.1.1
# www.blender.org
mtllib spider_back_3.mtl
o spider_back_3_indiv
v -0.002612 0.478964 0.001476
v 0.001834 0.479223 0.002201
v -0.001049 0.479817 0.005621
v -0.005495 0.479558 0.004897
v -0.007060 0.478704 0.000750
v -0.004177 0.478110 -0.002670
v 0.000271 0.478369 -0.001946
v 0.014862 0.193998 -0.026024
v 0.006457 0.196878 -0.012445
v -0.005388 0.197080 -0.014360
v -0.008770 0.194334 -0.030207
v -0.000232 0.191418 -0.043947
v 0.011550 0.191285 -0.041679
v 0.007180 0.161726 -0.021188
v 0.002789 0.163009 -0.013793
v -0.003330 0.162579 -0.014652
v -0.005020 0.160819 -0.023141
v -0.000545 0.159519 -0.030642
v 0.005534 0.159996 -0.029550
v 0.005926 0.235756 -0.030520
v 0.002771 0.235862 -0.024331
v -0.001406 0.233647 -0.024499
v -0.002382 0.231276 -0.031110
v 0.000847 0.231174 -0.037423
v 0.004978 0.233436 -0.037001
v 0.006787 -0.006659 0.005966
v -0.000736 -0.002998 0.020866
v -0.010443 -0.001672 0.019208
v -0.012541 -0.004109 0.002112
v -0.004826 -0.007840 -0.013027
v 0.004787 -0.009063 -0.010831
vn 0.4129 -0.0920 0.9061
vn 0.9720 -0.0009 0.2351
vn -0.0259 0.9810 -0.1922
vn -0.5597 -0.0963 0.8231
vn 0.4128 -0.0919 0.9062
vn -0.0259 0.9810 -0.1921
vn -0.9958 0.0066 -0.0919
vn -0.0260 0.9810 -0.1922
vn -0.4620 0.1241 -0.8781
vn -0.9957 0.0066 -0.0919
vn 0.6906 0.1248 -0.7124
vn -0.4619 0.1241 -0.8782
vn 0.9720 -0.0008 0.2351
vn -0.0258 0.9810 -0.1924
vn 0.9930 0.0350 0.1126
vn 0.4128 -0.0919 0.9061
vn 0.5486 -0.0495 0.8346
vn -0.8451 -0.0318 0.5336
vn -0.5596 -0.0963 0.8231
vn -0.9958 0.0066 -0.0918
vn -0.9666 0.0406 -0.2532
vn -0.6111 0.1051 -0.7845
vn -0.4621 0.1240 -0.8781
vn 0.6906 0.1248 -0.7123
vn 0.6313 0.1382 -0.7631
vn -0.9860 -0.0053 -0.1664
vn -0.9821 0.0111 -0.1880
vn -0.4783 -0.0794 -0.8746
vn -0.5385 -0.1210 -0.8339
vn 0.8137 -0.1211 -0.5685
vn 0.7534 -0.0649 -0.6543
vn 0.9883 0.0344 0.1486
vn 0.9839 -0.0099 0.1783
vn 0.5225 0.1274 0.8431
vn 0.5648 0.1100 0.8179
vn 0.9839 -0.0099 0.1784
vn 0.9883 0.0344 0.1487
vn -0.9861 -0.0054 -0.1663
vn -0.7832 0.1189 0.6102
vn -0.7604 0.1138 0.6394
vn 0.7534 -0.0648 -0.6543
vn 0.8137 -0.1212 -0.5685
vn -0.5385 -0.1209 -0.8339
vn -0.4783 -0.0793 -0.8746
vn 0.5225 0.1274 0.8430
vn 0.5486 -0.0496 0.8346
vn -0.7605 0.1138 0.6393
vn -0.9665 0.0406 -0.2533
vn -0.4782 -0.0793 -0.8746
vn 0.7535 -0.0649 -0.6543
vn 0.6313 0.1382 -0.7632
vn 0.9930 0.0350 0.1125
vn 0.5648 0.1101 0.8179
vn -0.7605 0.1139 0.6393
vn -0.7833 0.1188 0.6102
vn -0.5626 0.0083 -0.8267
vn -0.9793 0.0724 -0.1892
vn -0.9861 -0.0053 -0.1664
vn 0.9857 0.0684 0.1538
vn 0.8601 0.0078 -0.5101
vn 0.6517 0.2139 0.7277
vn 0.9857 0.0684 0.1539
vn -0.9861 -0.0053 -0.1663
vn -0.8113 0.2338 0.5358
vn -0.7832 0.1189 0.6103
vn 0.8601 0.0078 -0.5100
vn -0.5627 0.0082 -0.8266
vn 0.5485 -0.0494 0.8347
vn 0.9930 0.0351 0.1126
vn -0.9821 0.0112 -0.1880
vn -0.6111 0.1051 -0.7846
vn 0.4128 -0.0920 0.9061
vn -0.8451 -0.0317 0.5336
vn -0.4620 0.1240 -0.8782
vn 0.6906 0.1247 -0.7124
vn -0.8113 0.2339 0.5358
vt 0.833427 0.714023
vt 0.835090 0.713956
vt 0.834264 0.715436
vt 0.831935 0.713989
vt 0.732687 0.161724
vt 0.731169 0.161108
vt 0.733533 0.160161
vt 0.734347 0.161818
vt 0.735834 0.161041
vt 0.836624 0.714176
vt 0.855555 0.612784
vt 0.852575 0.612576
vt 0.747001 0.264830
vt 0.749912 0.265562
vt 0.752986 0.265270
vt 0.754659 0.264146
vt 0.750870 0.295941
vt 0.750201 0.281164
vt 0.756910 0.281670
vt 0.754602 0.295666
vt 0.860698 0.581036
vt 0.864591 0.594862
vt 0.858013 0.595481
vt 0.857054 0.581267
vt 0.851242 0.595353
vt 0.853512 0.581341
vt 0.747108 0.295853
vt 0.743544 0.281018
vt 0.761853 0.281836
vt 0.757155 0.295221
vt 0.850883 0.611502
vt 0.846275 0.594665
vt 0.858405 0.612080
vt 0.850999 0.581004
vt 0.761452 0.366297
vt 0.753845 0.366656
vt 0.864767 0.510411
vt 0.872236 0.510851
vt 0.856658 0.510088
vt 0.746434 0.366838
vt 0.765714 0.365607
vt 0.852164 0.510076
s 0
usemtl default.006
f 3/1/1 2/2/2 1/3/3
f 4/4/4 3/1/5 1/3/6
f 5/5/7 4/6/4 1/7/8
f 6/8/9 5/5/10 1/7/8
f 7/9/11 6/8/12 1/7/8
f 2/2/13 7/10/11 1/3/14
f 20/11/15 2/2/2 3/1/16 21/12/17
f 22/13/18 4/6/19 5/5/20 23/14/21
f 24/15/22 6/8/23 7/9/24 25/16/25
f 17/17/26 11/18/27 12/19/28 18/20/29
f 19/21/30 13/22/31 8/23/32 14/24/33
f 9/25/34 15/26/35 14/24/36 8/23/37
f 11/18/27 17/17/38 16/27/39 10/28/40
f 13/29/41 19/30/42 18/20/43 12/19/44
f 9/25/45 21/12/46 22/31/18 10/32/47
f 11/18/27 23/14/48 24/15/22 12/19/49
f 13/22/50 25/33/51 20/11/52 8/23/32
f 15/26/53 9/25/45 10/32/54 16/34/55
f 18/20/43 30/35/56 29/36/57 17/17/58
f 14/24/33 26/37/59 31/38/60 19/21/42
f 15/26/35 27/39/61 26/37/62 14/24/36
f 17/17/63 29/36/57 28/40/64 16/27/65
f 19/30/30 31/41/66 30/35/67 18/20/29
f 21/12/68 9/25/34 8/23/37 20/11/69
f 23/14/21 11/18/70 10/28/40 22/13/18
f 25/16/25 13/29/50 12/19/28 24/15/71
f 21/12/17 3/1/72 4/4/4 22/31/73
f 23/14/48 5/5/20 6/8/74 24/15/22
f 25/33/51 7/10/75 2/2/2 20/11/15
f 27/39/61 15/26/53 16/34/39 28/42/76
