# Blender 4.1.1
# www.blender.org
mtllib spider_front_2.mtl
o spider_front_2_indiv
v 0.001451 -0.016593 -0.036824
v 0.023177 -0.017582 -0.014888
v 0.020061 -0.000585 0.010713
v -0.004782 0.017399 0.014382
v -0.026508 0.018390 -0.007552
v -0.023392 0.001393 -0.033154
v 0.000848 0.038944 -0.015599
v 0.016721 0.030630 -0.003231
v 0.012144 0.028743 0.007456
v -0.008889 0.035405 0.005553
v -0.024972 0.043867 -0.007102
v -0.019814 0.045517 -0.017562
v 0.005304 0.352010 -0.024176
v 0.037183 0.345672 -0.009580
v 0.034191 0.336372 0.008959
v -0.001696 0.333461 0.012747
v -0.034036 0.339950 -0.002181
v -0.030027 0.349198 -0.020555
v 0.000949 0.374804 0.009819
v 0.016299 0.371095 0.016345
v 0.014977 0.365269 0.024288
v -0.002240 0.363181 0.025618
v -0.017839 0.366991 0.018929
v -0.015971 0.372788 0.011076
v 0.003321 0.313250 -0.024472
v 0.024818 0.309881 -0.014454
v 0.022810 0.305453 -0.001611
v -0.001320 0.304424 0.001116
v -0.023102 0.307862 -0.009108
v -0.020471 0.312257 -0.021850
vn 0.8179 -0.4792 -0.3184
vn 0.9001 0.0221 -0.4350
vn 0.4583 0.0475 0.8875
vn 0.8319 -0.0039 0.5549
vn -0.0248 0.5862 0.8098
vn -0.2027 0.0331 0.9787
vn -0.7927 0.0254 0.6091
vn -0.9221 0.3683 0.1184
vn -0.5647 -0.0787 -0.8215
vn -0.3989 0.0225 -0.9167
vn 0.3271 0.0298 -0.9445
vn 0.2173 -0.4347 -0.8740
vn 0.8180 -0.4791 -0.3184
vn 0.2174 -0.4347 -0.8740
vn 0.3271 0.0297 -0.9445
vn 0.7471 -0.0590 -0.6621
vn 0.5044 -0.0466 0.8622
vn 0.4583 0.0474 0.8876
vn -0.0248 0.5861 0.8099
vn 0.8319 -0.0040 0.5549
vn 0.4583 0.0474 0.8875
vn -0.2520 -0.0161 0.9676
vn -0.1684 -0.3816 0.9089
vn -0.8674 -0.1547 0.4730
vn -0.8736 -0.0366 0.4852
vn -0.5647 -0.0788 -0.8215
vn -0.9221 0.3683 0.1185
vn -0.3608 -0.0317 -0.9321
vn -0.5204 0.4201 -0.7434
vn 0.1657 0.4830 -0.8598
vn 0.2314 -0.0294 -0.9724
vn 0.7693 0.3525 -0.5328
vn 0.2315 -0.0294 -0.9724
vn 0.1658 0.4830 -0.8598
vn 0.5045 -0.0466 0.8622
vn 0.6520 -0.2344 0.7211
vn -0.5204 0.4201 -0.7435
vn -0.8736 -0.0366 0.4853
vn 0.7693 0.3525 -0.5329
vn 0.7313 0.5615 -0.3872
vn 0.5781 -0.4914 0.6514
vn 0.6519 -0.2344 0.7212
vn -0.8195 -0.3749 0.4334
vn -0.1685 -0.3816 0.9088
vn -0.1601 -0.6713 0.7236
vn 0.1417 0.7430 -0.6541
vn 0.1657 0.4829 -0.8598
vn -0.5060 0.6486 -0.5685
vn 0.7314 0.5614 -0.3872
vn 0.1418 0.7431 -0.6540
vn -0.1601 -0.6713 0.7237
vn 0.5781 -0.4915 0.6514
vn -0.5060 0.6486 -0.5686
vn -0.5203 0.4202 -0.7434
vn -0.8195 -0.3750 0.4333
vn 0.7470 -0.0590 -0.6622
vn 0.6519 -0.2343 0.7212
vn -0.8736 -0.0367 0.4853
vn -0.2027 0.0330 0.9787
vn 0.3270 0.0297 -0.9445
vn -0.3607 -0.0317 -0.9321
vn 0.9002 0.0221 -0.4350
vn -0.2519 -0.0161 0.9676
vn -0.2026 0.0331 0.9787
vn -0.3989 0.0226 -0.9167
vn -0.7927 0.0255 0.6091
vt 0.845905 0.712519
vt 0.860512 0.698473
vt 0.865014 0.700413
vt 0.858821 0.711375
vt 0.871882 0.709068
vt 0.874336 0.700057
vt 0.883509 0.697332
vt 0.884882 0.707155
vt 0.534580 0.104024
vt 0.516790 0.109001
vt 0.515646 0.098478
vt 0.538970 0.094708
vt 0.516902 0.088450
vt 0.540751 0.083893
vt 0.878365 0.584245
vt 0.884050 0.585756
vt 0.894341 0.587437
vt 0.896986 0.574067
vt 0.911738 0.576155
vt 0.904479 0.588396
vt 0.529546 0.114447
vt 0.518681 0.113697
vt 0.407599 0.131783
vt 0.392821 0.137062
vt 0.389680 0.124443
vt 0.405054 0.122144
vt 0.387851 0.110459
vt 0.404032 0.112316
vt 0.883018 0.570841
vt 0.410129 0.136923
vt 0.394295 0.144246
vt 0.874789 0.568409
vt 0.887424 0.557255
vt 0.891535 0.557742
vt 0.906086 0.561244
vt 0.898907 0.559561
vt 0.374049 0.130062
vt 0.376532 0.137913
vt 0.372137 0.122510
vt 0.376995 0.142168
s 0
usemtl default.003
f 2/1/1 8/2/2 9/3/3 3/4/4
f 4/5/5 10/6/6 11/7/7 5/8/8
f 6/9/9 12/10/10 7/11/11 1/12/12
f 8/13/2 2/14/13 1/12/14 7/11/15
f 8/2/2 26/15/16 27/16/17 9/3/18
f 10/6/6 4/5/19 3/4/20 9/3/21
f 28/17/22 16/18/23 17/19/24 29/20/25
f 12/10/10 6/9/26 5/21/27 11/22/7
f 30/23/28 18/24/29 13/25/30 25/26/31
f 14/27/32 26/28/16 25/26/33 13/25/34
f 16/18/23 28/17/22 27/16/35 15/29/36
f 18/24/37 30/23/28 29/30/38 17/31/24
f 14/32/39 20/33/40 21/34/41 15/29/42
f 23/35/43 17/19/24 16/18/44 22/36/45
f 19/37/46 13/25/47 18/24/29 24/38/48
f 20/39/49 14/27/39 13/25/47 19/37/50
f 22/36/51 16/18/23 15/29/36 21/34/52
f 24/38/53 18/24/54 17/31/24 23/40/55
f 26/15/56 14/32/32 15/29/57 27/16/35
f 29/20/58 11/7/7 10/6/59 28/17/22
f 25/26/31 7/11/60 12/10/10 30/23/61
f 26/28/16 8/13/62 7/11/15 25/26/33
f 28/17/63 10/6/64 9/3/18 27/16/35
f 30/23/61 12/10/65 11/22/66 29/30/58
