# Blender 4.1.1
# www.blender.org
mtllib spider_front_2_bis.mtl
o spider_front_2_indiv
v -0.020371 -0.007566 -0.022990
v 0.004444 0.010419 -0.026837
v 0.026327 0.011409 -0.005058
v -0.000971 0.031963 0.003184
v -0.016932 0.023649 -0.009069
v -0.012432 0.021762 -0.019789
v 0.008614 0.028424 -0.018037
v 0.024788 0.036886 -0.005497
v 0.019704 0.038536 0.004999
v -0.005366 0.345029 0.011793
v -0.037348 0.338692 -0.002575
v -0.034489 0.329392 -0.021134
v 0.001370 0.326480 -0.025179
v 0.033816 0.332969 -0.010483
v 0.029939 0.342218 0.007919
v -0.001254 0.367823 -0.022232
v -0.016651 0.364114 -0.028649
v -0.015385 0.358288 -0.036600
v 0.001821 0.356200 -0.038053
v 0.017468 0.360010 -0.031476
v 0.015656 0.365807 -0.023610
v -0.003380 0.306269 0.012075
v -0.024949 0.302900 0.002211
v -0.023032 0.298473 -0.010646
v 0.001077 0.297444 -0.013546
v 0.022932 0.300881 -0.003478
v 0.020392 0.305276 0.009282
v 0.024065 -0.001702 0.014707
v 0.022929 -0.000027 0.018603
v -0.001240 -0.001205 0.015863
v -0.021454 -0.013842 -0.013528
v -0.021190 -0.008563 -0.001250
vn -0.8116 -0.1960 0.5503
vn -0.9054 0.0299 0.4236
vn -0.4402 0.0475 -0.8966
vn -0.8246 0.0008 -0.5658
vn -0.9399 -0.2556 -0.2262
vn 0.0189 0.5862 -0.8099
vn 0.1957 0.0331 -0.9801
vn 0.7882 0.0255 -0.6148
vn 0.9213 0.3683 -0.1249
vn 0.4198 -0.2696 0.8667
vn 0.3937 0.0221 0.9190
vn -0.3304 0.0238 0.9436
vn 0.1566 0.1358 0.9783
vn -0.8970 0.0221 0.4416
vn -0.7423 -0.0590 0.6674
vn -0.5105 -0.0466 -0.8586
vn -0.4645 0.0474 -0.8843
vn 0.1956 0.0331 -0.9801
vn 0.0190 0.5860 -0.8101
vn -0.8359 -0.0040 -0.5489
vn -0.4646 0.0475 -0.8843
vn 0.2451 -0.0162 -0.9694
vn 0.1620 -0.3816 -0.9100
vn 0.8640 -0.1547 -0.4792
vn 0.8702 -0.0366 -0.4914
vn 0.3673 -0.0317 0.9295
vn 0.5258 0.4202 0.7396
vn -0.1596 0.4830 0.8610
vn -0.2244 -0.0294 0.9741
vn -0.7655 0.3525 0.5382
vn -0.7422 -0.0590 0.6675
vn -0.2246 -0.0294 0.9740
vn 0.1618 -0.3816 -0.9101
vn 0.2451 -0.0161 -0.9694
vn -0.5107 -0.0466 -0.8585
vn -0.6571 -0.2344 -0.7164
vn 0.5257 0.4201 0.7397
vn 0.3673 -0.0316 0.9295
vn 0.8701 -0.0366 -0.4916
vn 0.8639 -0.1546 -0.4793
vn -0.7655 0.3525 0.5384
vn -0.7285 0.5615 0.3925
vn -0.5827 -0.4914 -0.6473
vn -0.6570 -0.2345 -0.7165
vn 0.8164 -0.3749 -0.4392
vn 0.1621 -0.3816 -0.9100
vn 0.1550 -0.6713 -0.7248
vn -0.1369 0.7431 0.6551
vn -0.1596 0.4829 0.8610
vn 0.5100 0.6487 0.5649
vn -0.7286 0.5614 0.3924
vn -0.1372 0.7431 0.6550
vn 0.1549 -0.6713 -0.7248
vn 0.1617 -0.3816 -0.9101
vn -0.5827 -0.4915 -0.6472
vn 0.5100 0.6486 0.5650
vn 0.5256 0.4202 0.7397
vn 0.8639 -0.1548 -0.4793
vn 0.8164 -0.3750 -0.4392
vn -0.7422 -0.0590 0.6676
vn -0.7655 0.3525 0.5383
vn -0.6570 -0.2343 -0.7165
vn 0.8701 -0.0367 -0.4915
vn 0.7883 0.0254 -0.6148
vn 0.1958 0.0330 -0.9801
vn 0.2452 -0.0161 -0.9693
vn -0.3202 0.0297 0.9469
vn 0.4053 0.0225 0.9139
vn 0.3673 -0.0317 0.9296
vn -0.8970 0.0221 0.4414
vn -0.3204 0.0297 0.9468
vn 0.2449 -0.0161 -0.9694
vn 0.1955 0.0330 -0.9801
vn -0.4646 0.0474 -0.8842
vn 0.4053 0.0226 0.9139
vn 0.7883 0.0255 -0.6147
vn 0.8700 -0.0367 -0.4916
vn -0.8949 0.0233 0.4457
vn -0.5014 -0.0517 0.8636
vn -0.1363 -0.3659 0.9206
vn -0.3157 0.0293 0.9484
vn 0.4042 0.0220 0.9144
vn 0.6439 -0.7391 0.1978
vn 0.7415 -0.4921 0.4560
vn 0.9216 0.3679 -0.1237
vn 0.7894 0.0253 -0.6134
vt 0.850752 0.707858
vt 0.860512 0.698473
vt 0.865014 0.700413
vt 0.858821 0.711375
vt 0.854051 0.711797
vt 0.871882 0.709068
vt 0.874336 0.700057
vt 0.883509 0.697332
vt 0.884882 0.707155
vt 0.532338 0.104651
vt 0.516790 0.109001
vt 0.515646 0.098478
vt 0.529576 0.096226
vt 0.878365 0.584245
vt 0.884050 0.585756
vt 0.894341 0.587437
vt 0.896986 0.574067
vt 0.911738 0.576155
vt 0.904479 0.588396
vt 0.407599 0.131783
vt 0.392821 0.137062
vt 0.389680 0.124443
vt 0.405054 0.122144
vt 0.387851 0.110459
vt 0.404032 0.112316
vt 0.883018 0.570841
vt 0.410129 0.136923
vt 0.394295 0.144246
vt 0.874789 0.568409
vt 0.887424 0.557255
vt 0.891535 0.557742
vt 0.906086 0.561244
vt 0.898907 0.559561
vt 0.374049 0.130062
vt 0.376532 0.137913
vt 0.372137 0.122510
vt 0.376995 0.142168
vt 0.516902 0.088450
vt 0.518681 0.113697
vt 0.532837 0.085405
vt 0.533429 0.106407
vt 0.529546 0.114447
s 0
usemtl default.003
f 32/1/1 5/2/2 6/3/3 1/4/4 31/5/5
f 2/6/6 7/7/7 8/8/8 3/9/9
f 29/10/10 9/11/11 4/12/12 30/13/13
f 5/2/14 23/14/15 24/15/16 6/3/17
f 7/7/18 2/6/19 1/4/20 6/3/21
f 25/16/22 13/17/23 14/18/24 26/19/25
f 27/20/26 15/21/27 10/22/28 22/23/29
f 11/24/30 23/25/31 22/23/32 10/22/28
f 13/17/33 25/16/34 24/15/35 12/26/36
f 15/21/37 27/20/38 26/27/39 14/28/40
f 11/29/41 17/30/42 18/31/43 12/26/44
f 20/32/45 14/18/24 13/17/46 19/33/47
f 16/34/48 10/22/49 15/21/37 21/35/50
f 17/36/51 11/24/41 10/22/49 16/34/52
f 19/33/53 13/17/54 12/26/36 18/31/55
f 21/35/56 15/21/57 14/28/58 20/37/59
f 23/14/60 11/29/61 12/26/62 24/15/35
f 26/19/63 8/8/64 7/7/65 25/16/66
f 22/23/29 4/12/67 9/11/68 27/20/69
f 23/25/31 5/38/70 4/12/71 22/23/32
f 25/16/72 7/7/73 6/3/74 24/15/35
f 27/20/69 9/11/75 8/39/76 26/27/77
f 5/38/78 32/40/79 30/13/80 4/12/81
f 9/11/82 29/10/83 28/41/84 3/42/85 8/39/86
l 31 28
