# Blender 4.1.1
# www.blender.org
mtllib spider_middle2_2.mtl
o spider_middle2_2_indiv
v 0.008408 -0.014163 0.008933
v -0.007016 -0.007874 0.020151
v -0.015264 -0.005845 0.013376
v -0.007726 -0.010272 -0.005085
v 0.008013 -0.016677 -0.016422
v 0.015896 -0.018538 -0.009181
v 0.023191 0.378790 0.004818
v -0.004247 0.387616 0.025761
v -0.021992 0.383987 0.015221
v -0.011739 0.371206 -0.017062
v 0.016221 0.362269 -0.038254
v 0.033397 0.366221 -0.026918
v 0.006885 0.408285 -0.018811
v -0.006194 0.411792 -0.008392
v -0.014551 0.408570 -0.012697
v -0.009526 0.401667 -0.027852
v 0.003830 0.398124 -0.038419
v 0.011882 0.401519 -0.033686
v 0.007998 0.343253 0.008395
v -0.010268 0.350073 0.022310
v -0.021743 0.349389 0.014798
v -0.014606 0.341685 -0.007121
v 0.003974 0.334775 -0.021188
v 0.015099 0.335658 -0.013186
vn 0.2996 0.0448 0.9530
vn 0.1351 -0.0204 0.9906
vn -0.9815 -0.0178 0.1904
vn -0.9970 0.0329 0.0708
vn -0.8370 -0.0255 -0.5466
vn -0.8299 -0.1181 -0.5452
vn -0.0974 -0.2680 -0.9585
vn -0.2361 -0.0497 -0.9705
vn 0.9985 -0.0508 -0.0208
vn 0.9910 -0.0141 -0.1330
vn 0.8337 0.2233 0.5051
vn 0.7641 -0.0256 0.6446
vn 0.2686 0.3965 0.8779
vn 0.7640 -0.0256 0.6447
vn -0.8300 -0.1181 -0.5451
vn -0.8371 -0.0255 -0.5465
vn -0.9484 0.2156 0.2324
vn 0.9910 -0.0141 -0.1329
vn -0.0975 -0.2680 -0.9585
vn 0.2687 0.3964 0.8779
vn 0.2339 0.5736 0.7850
vn -0.9826 0.0153 0.1850
vn -0.9484 0.2156 0.2323
vn -0.2207 -0.4177 -0.8814
vn -0.8250 -0.3398 -0.4516
vn 0.8066 0.4357 0.3994
vn 0.9596 0.1612 -0.2305
vn 0.2338 0.5736 0.7850
vn 0.8066 0.4357 0.3995
vn -0.8250 -0.3397 -0.4516
vn -0.9826 0.0154 0.1849
vn 0.2687 0.3965 0.8779
vn -0.9484 0.2157 0.2324
vn -0.9816 -0.0178 0.1904
vn -0.0803 -0.0047 -0.9968
vn -0.7723 0.0093 -0.6352
vn 0.7641 -0.0255 0.6446
vn 0.8319 0.0161 0.5547
vn 0.9974 -0.0174 -0.0705
vn 0.2997 0.0449 0.9530
vn 0.8318 0.0160 0.5548
vn 0.7640 -0.0255 0.6447
vn -0.7724 0.0093 -0.6351
vn -0.9970 0.0328 0.0708
vn 0.9974 -0.0175 -0.0705
vn -0.0804 -0.0047 -0.9968
vn -0.2361 -0.0497 -0.9704
vt 0.829050 0.391257
vt 0.837849 0.540956
vt 0.832028 0.541298
vt 0.824633 0.391968
vt 0.822210 0.539182
vt 0.819058 0.552372
vt 0.804297 0.548627
vt 0.812386 0.536542
vt 0.671082 0.857995
vt 0.686832 0.852621
vt 0.689622 0.865082
vt 0.674037 0.867713
vt 0.691998 0.878983
vt 0.676394 0.877364
vt 0.833413 0.555426
vt 0.670407 0.852132
vt 0.685834 0.845166
vt 0.841483 0.557272
vt 0.828677 0.569333
vt 0.824577 0.568277
vt 0.809570 0.564493
vt 0.816970 0.566346
vt 0.705718 0.859410
vt 0.703412 0.851510
vt 0.707423 0.867002
vt 0.702676 0.847276
vt 0.807665 0.389038
vt 0.816187 0.389983
vt 0.525954 0.860979
vt 0.522772 0.852149
vt 0.528046 0.869721
vt 0.522941 0.847560
s 0
usemtl default.002
f 2/1/1 20/2/2 21/3/3 3/4/4
f 22/5/5 10/6/6 11/7/7 23/8/8
f 24/9/9 12/10/10 7/11/11 19/12/12
f 8/13/13 20/14/2 19/12/14 7/11/11
f 10/6/15 22/5/16 21/3/3 9/15/17
f 12/10/18 24/9/9 23/16/8 11/17/19
f 8/18/20 14/19/21 15/20/22 9/15/23
f 17/21/24 11/7/7 10/6/6 16/22/25
f 13/23/26 7/11/11 12/10/10 18/24/27
f 14/25/28 8/13/20 7/11/11 13/23/29
f 16/22/30 10/6/15 9/15/17 15/20/31
f 18/24/27 12/10/10 11/17/7 17/26/24
f 20/2/2 8/18/32 9/15/33 21/3/34
f 23/8/8 5/27/35 4/28/36 22/5/5
f 19/12/37 1/29/38 6/30/39 24/9/9
f 20/14/2 2/31/40 1/29/41 19/12/42
f 22/5/16 4/28/43 3/4/44 21/3/3
f 24/9/9 6/30/45 5/32/46 23/16/47
