# Blender 4.1.1
# www.blender.org
mtllib spider_middle_2.mtl
o spider_middle_2_indiv
v 0.007888 -0.001829 -0.021768
v -0.003716 0.027558 0.008399
v -0.020278 0.027309 -0.003698
v -0.016646 0.027021 -0.014180
v 0.004134 0.026988 -0.012346
v 0.020928 0.027245 0.000031
v 0.016709 0.027530 0.010291
v -0.009805 0.379379 0.018994
v -0.038164 0.376342 -0.002357
v -0.031491 0.370564 -0.021363
v 0.004508 0.367831 -0.018663
v 0.033252 0.370950 0.003125
v 0.025616 0.376722 0.021767
v 0.000523 0.407966 -0.008760
v -0.013215 0.405765 -0.018679
v -0.010281 0.401479 -0.027152
v 0.006910 0.399398 -0.025514
v 0.020860 0.401665 -0.015373
v 0.017407 0.405947 -0.007097
v -0.007138 0.341199 0.012546
v -0.026248 0.340073 -0.001855
v -0.021729 0.338051 -0.014665
v 0.002494 0.337159 -0.012852
v 0.021841 0.338312 0.001815
v 0.016729 0.340329 0.014400
v -0.005806 -0.010718 0.014554
v -0.025517 -0.010457 -0.001362
v -0.014250 -0.010134 -0.021018
v -0.020741 -0.010145 -0.020367
v 0.025035 -0.010387 -0.005615
v 0.028627 -0.010450 -0.001769
v 0.019544 -0.010737 0.015743
vn -0.9122 -0.1296 0.3886
vn -0.8801 0.0163 0.4746
vn -0.3282 0.0229 -0.9443
vn -0.6447 -0.7586 -0.0942
vn 0.3816 -0.4009 0.8329
vn 0.3175 0.0202 0.9480
vn -0.3688 0.0145 0.9294
vn 0.0724 -0.1655 0.9836
vn -0.8739 0.0126 0.4859
vn -0.8569 -0.0510 0.5129
vn -0.3874 -0.0378 -0.9211
vn -0.3427 0.0228 -0.9392
vn 0.3539 -0.0167 -0.9351
vn 0.3471 -0.2105 -0.9139
vn 0.9448 -0.0787 -0.3180
vn 0.9005 -0.0302 -0.4339
vn 0.3035 -0.0442 0.9518
vn 0.3600 0.2680 0.8937
vn -0.3370 0.3191 0.8858
vn -0.3532 -0.0356 0.9349
vn -0.8640 0.2607 0.4307
vn -0.8570 -0.0510 0.5129
vn -0.3535 -0.0356 0.9348
vn -0.3369 0.3191 0.8858
vn 0.3468 -0.2105 -0.9140
vn 0.3537 -0.0167 -0.9352
vn -0.3875 -0.0378 -0.9211
vn -0.4970 -0.0873 -0.8633
vn 0.3598 0.2679 0.8937
vn 0.3035 -0.0440 0.9518
vn 0.9005 -0.0301 -0.4339
vn 0.9448 -0.0787 -0.3181
vn -0.8640 0.2606 0.4308
vn -0.8255 0.4588 0.3287
vn -0.4204 -0.2853 -0.8613
vn -0.4969 -0.0874 -0.8634
vn 0.8813 -0.3053 -0.3606
vn 0.9448 -0.0788 -0.3180
vn 0.3115 -0.4690 -0.8264
vn -0.3012 0.5529 0.7769
vn 0.3599 0.2678 0.8937
vn 0.3867 0.4472 0.8065
vn -0.8255 0.4589 0.3286
vn -0.3014 0.5529 0.7768
vn 0.3113 -0.4690 -0.8265
vn -0.4970 -0.0874 -0.8633
vn -0.4203 -0.2853 -0.8614
vn 0.3866 0.4471 0.8066
vn 0.9448 -0.0788 -0.3181
vn -0.8570 -0.0509 0.5129
vn -0.8640 0.2606 0.4309
vn -0.4969 -0.0872 -0.8634
vn 0.8782 0.0300 -0.4774
vn 0.3537 0.0236 -0.9351
vn 0.3540 -0.0166 -0.9351
vn -0.3532 -0.0355 0.9349
vn -0.3537 0.0169 0.9352
vn 0.3334 0.0198 0.9426
vn 0.3035 -0.0441 0.9518
vn -0.3539 0.0169 0.9351
vn -0.3535 -0.0355 0.9348
vn 0.3537 -0.0166 -0.9352
vn 0.3534 0.0236 -0.9352
vn -0.3427 0.0227 -0.9392
vn -0.3875 -0.0377 -0.9211
vn 0.3334 0.0199 0.9426
vn 0.8781 0.0300 -0.4774
vn 0.9004 -0.0301 -0.4340
vn 0.3447 0.0236 0.9384
vn 0.7902 -0.5576 0.2542
vn 0.9921 0.1245 0.0136
vn 0.8711 0.0301 -0.4902
vn 0.2798 0.5987 -0.7505
vn 0.3531 0.0238 -0.9353
vn 0.8780 0.0305 -0.4778
vn 0.5313 -0.0465 -0.8459
vn 0.8089 -0.4907 -0.3239
vn 0.3542 0.0239 -0.9348
vn 0.2809 0.5989 -0.7499
vn 0.4449 0.0812 -0.8919
vn -0.7408 0.3000 -0.6010
vn -0.3421 0.0234 -0.9394
vn -0.8656 0.0132 0.5006
vn -0.4894 -0.2304 0.8411
vn -0.2006 -0.4389 0.8759
vn -0.3385 0.0148 0.9408
vt 0.477603 0.906092
vt 0.493172 0.908432
vt 0.491459 0.913158
vt 0.471008 0.915356
vt 0.478628 0.885956
vt 0.494941 0.890359
vt 0.494483 0.899126
vt 0.479731 0.896588
vt 0.622994 0.924676
vt 0.621600 0.930229
vt 0.227615 0.467844
vt 0.213718 0.469887
vt 0.212503 0.455313
vt 0.226570 0.457480
vt 0.624384 0.904064
vt 0.641237 0.902472
vt 0.639941 0.915759
vt 0.623749 0.914204
vt 0.637293 0.928512
vt 0.228518 0.477975
vt 0.215733 0.484608
vt 0.210660 0.446927
vt 0.225363 0.451871
vt 0.654699 0.927542
vt 0.654247 0.931962
vt 0.635395 0.936050
vt 0.198486 0.463716
vt 0.199860 0.471220
vt 0.655821 0.919674
vt 0.656930 0.912410
vt 0.200918 0.478548
vt 0.197365 0.459541
vt 0.357204 0.442925
vt 0.358420 0.451361
vt 0.358330 0.460130
vt 0.355747 0.438532
vt 0.367261 0.428658
vt 0.372707 0.436650
vt 0.372412 0.449773
vt 0.373294 0.438864
vt 0.373300 0.460177
vt 0.372601 0.463152
s 0
usemtl default.005
f 27/1/1 3/2/2 4/3/3 29/4/4
f 32/5/5 7/6/6 2/7/7 26/8/8
f 3/2/9 21/9/10 22/10/11 4/3/12
f 23/11/13 11/12/14 12/13/15 24/14/16
f 25/15/17 13/16/18 8/17/19 20/18/20
f 9/19/21 21/9/22 20/18/23 8/17/24
f 11/12/25 23/11/26 22/20/27 10/21/28
f 13/22/29 25/23/30 24/14/31 12/13/32
f 9/19/33 15/24/34 16/25/35 10/26/36
f 18/27/37 12/13/38 11/12/14 17/28/39
f 14/29/40 8/17/24 13/16/41 19/30/42
f 15/24/43 9/19/33 8/17/24 14/29/44
f 17/28/45 11/12/25 10/21/46 16/31/47
f 19/32/48 13/22/29 12/13/49 18/27/37
f 21/9/50 9/19/51 10/26/52 22/10/27
f 24/14/31 6/33/53 5/34/54 23/11/55
f 20/18/56 2/7/57 7/6/58 25/15/59
f 21/9/22 3/2/9 2/7/60 20/18/61
f 23/11/62 5/34/63 4/35/64 22/20/65
f 25/23/59 7/36/66 6/33/67 24/14/68
f 7/36/69 32/37/70 31/38/71 6/33/72
f 1/39/73 5/34/74 6/33/75 31/38/76 30/40/77
f 5/34/78 1/39/79 28/41/80 29/42/81 4/35/82
f 3/2/83 27/1/84 26/8/85 2/7/86
l 30 28
