# Blender 4.1.1
# www.blender.org
mtllib spider_middle2_3.mtl
o spider_middle2_3_indiv
v 0.001251 0.406973 -0.000838
v -0.003029 0.406818 -0.002264
v 0.000346 0.406892 -0.005258
v 0.004625 0.407047 -0.003835
v 0.005530 0.407128 0.000587
v 0.002155 0.407053 0.003582
v -0.002124 0.406897 0.002158
v -0.053707 0.268438 -0.019032
v -0.043325 0.269064 -0.031487
v -0.031947 0.270346 -0.027894
v -0.031064 0.271005 -0.011494
v -0.041602 0.270369 0.001104
v -0.052864 0.269086 -0.002838
v -0.044460 0.236365 -0.015927
v -0.038984 0.236416 -0.022681
v -0.033071 0.236529 -0.020838
v -0.032711 0.236591 -0.012015
v -0.038289 0.236541 -0.005167
v -0.044125 0.236428 -0.007238
v -0.030459 0.305236 -0.011318
v -0.026359 0.304301 -0.016850
v -0.022204 0.302417 -0.015602
v -0.022228 0.301467 -0.008575
v -0.026421 0.302427 -0.002937
v -0.030493 0.304310 -0.004432
v -0.009763 -0.003045 -0.004188
v -0.000064 -0.001970 -0.018213
v 0.009215 0.000233 -0.015416
v 0.008621 0.001364 0.001932
v -0.001305 0.000258 0.016173
v -0.010408 -0.001946 0.012852
vn -0.1733 0.1804 -0.9682
vn -0.9050 0.3002 -0.3015
vn -0.0323 0.9994 -0.0118
vn 0.8339 -0.1259 -0.5374
vn 0.9220 -0.2355 0.3073
vn 0.3450 -0.1248 0.9303
vn -0.0325 0.9994 -0.0113
vn -0.7191 0.1817 0.6707
vn 0.3451 -0.1248 0.9302
vn -0.8825 0.3670 -0.2942
vn -0.9050 0.3001 -0.3015
vn -0.3250 0.2804 -0.9032
vn 0.8627 -0.1490 -0.4833
vn 0.8339 -0.1259 -0.5373
vn 0.9221 -0.2354 0.3072
vn 0.9135 -0.2698 0.3044
vn 0.4007 -0.1479 0.9042
vn 0.3451 -0.1247 0.9302
vn -0.7191 0.1816 0.6707
vn -0.8014 0.2815 0.5277
vn 0.9371 0.1562 0.3120
vn 0.9341 -0.1748 0.3112
vn 0.2818 -0.0612 0.9575
vn 0.3749 0.1040 0.9212
vn -0.8910 -0.1193 0.4380
vn -0.8820 0.1535 0.4455
vn -0.9323 0.1852 -0.3106
vn -0.9354 -0.1676 -0.3113
vn -0.4388 0.1524 -0.8856
vn -0.4505 -0.1203 -0.8846
vn -0.9354 -0.1675 -0.3114
vn -0.9324 0.1852 -0.3105
vn 0.9341 -0.1748 0.3111
vn 0.9372 0.1562 0.3120
vn 0.8524 0.1029 -0.5127
vn 0.7995 -0.0623 -0.5974
vn -0.8821 0.1535 0.4454
vn 0.3749 0.1041 0.9212
vn 0.2818 -0.0611 0.9575
vn -0.4388 0.1525 -0.8855
vn 0.7995 -0.0624 -0.5974
vn 0.9135 -0.2698 0.3045
vn -0.8014 0.2814 0.5278
vn -0.8825 0.3670 -0.2941
vn -0.9324 0.1851 -0.3105
vn -0.4506 -0.1202 -0.8846
vn -0.4388 0.1524 -0.8855
vn 0.8524 0.1030 -0.5127
vn 0.4410 0.2040 0.8740
vn 0.9267 0.2145 0.3085
vn -0.9354 -0.1675 -0.3113
vn -0.9436 -0.1053 -0.3140
vn -0.9221 -0.0319 0.3857
vn -0.8910 -0.1192 0.4380
vn -0.4506 -0.1203 -0.8846
vn -0.5067 -0.0328 -0.8615
vn -0.9435 -0.1053 -0.3141
vn 0.9372 0.1562 0.3119
vn 0.9268 0.2145 0.3084
vn 0.8770 0.2029 -0.4355
vn 0.8523 0.1030 -0.5128
vn 0.4410 0.2039 0.8740
vn 0.3750 0.1040 0.9212
vn -0.3249 0.2804 -0.9032
vn -0.9324 0.1851 -0.3106
vn 0.7995 -0.0623 -0.5975
vn 0.8627 -0.1489 -0.4833
vn -0.8014 0.2815 0.5278
vn -0.8821 0.1534 0.4454
vn -0.3250 0.2803 -0.9032
vn -0.7191 0.1817 0.6708
vn -0.5067 -0.0329 -0.8615
vt 0.878689 0.824635
vt 0.877795 0.823246
vt 0.879355 0.822322
vt 0.777769 0.737628
vt 0.779269 0.737953
vt 0.776747 0.738951
vt 0.776100 0.737445
vt 0.774637 0.737170
vt 0.877722 0.821602
vt 0.878347 0.820081
vt 0.834678 0.831352
vt 0.835225 0.834274
vt 0.790246 0.693678
vt 0.787363 0.692714
vt 0.833129 0.826520
vt 0.833728 0.828433
vt 0.794104 0.664922
vt 0.790342 0.679375
vt 0.783816 0.676763
vt 0.790505 0.664197
vt 0.803112 0.834648
vt 0.816903 0.830695
vt 0.817382 0.837020
vt 0.804037 0.838207
vt 0.818839 0.843386
vt 0.804667 0.841745
vt 0.797634 0.665761
vt 0.797232 0.680533
vt 0.802462 0.832086
vt 0.817798 0.826035
vt 0.802257 0.680186
vt 0.792076 0.694503
vt 0.784456 0.691991
vt 0.800096 0.666508
vt 0.809570 0.564493
vt 0.816970 0.566346
vt 0.705718 0.859410
vt 0.703412 0.851510
vt 0.707423 0.867002
vt 0.824577 0.568277
vt 0.702676 0.847276
vt 0.828677 0.569333
s 0
usemtl default.002
f 3/1/1 2/2/2 1/3/3
f 4/4/4 3/5/1 1/6/3
f 5/7/5 4/4/4 1/6/3
f 6/8/6 5/7/5 1/6/7
f 7/9/8 6/10/9 1/3/7
f 2/2/2 7/9/8 1/3/7
f 20/11/10 2/2/11 3/1/1 21/12/12
f 22/13/13 4/4/14 5/7/15 23/14/16
f 24/15/17 6/10/18 7/9/19 25/16/20
f 17/17/21 11/18/22 12/19/23 18/20/24
f 19/21/25 13/22/26 8/23/27 14/24/28
f 9/25/29 15/26/30 14/24/31 8/23/32
f 11/18/33 17/17/34 16/27/35 10/28/36
f 13/22/37 19/21/25 18/29/38 12/30/39
f 9/31/40 21/32/12 22/13/13 10/28/41
f 11/18/22 23/14/42 24/33/17 12/19/39
f 13/22/26 25/16/43 20/11/44 8/23/45
f 15/34/46 9/31/47 10/28/41 16/27/48
f 18/20/38 30/35/49 29/36/50 17/17/34
f 14/24/51 26/37/52 31/38/53 19/21/54
f 15/26/55 27/39/56 26/37/57 14/24/31
f 17/17/58 29/36/59 28/40/60 16/27/61
f 19/21/25 31/38/53 30/41/62 18/29/63
f 21/12/64 9/25/29 8/23/65 20/11/10
f 23/14/16 11/18/33 10/28/66 22/13/67
f 25/16/68 13/22/69 12/30/23 24/15/17
f 21/32/70 3/5/1 4/4/14 22/13/13
f 23/14/42 5/7/15 6/8/9 24/33/17
f 25/16/20 7/9/71 2/2/11 20/11/44
f 27/42/72 15/34/55 16/27/35 28/40/60
