# Blender 4.1.1
# www.blender.org
mtllib cristals4.mtl
o Cristals4
v 0.378265 1.216509 0.818774
v -1.057658 0.750475 0.840943
v -1.057658 -0.757639 0.912679
v 0.378265 -1.223670 0.934847
v 1.265715 -0.003581 0.876810
v 0.336310 1.111691 2.548209
v -0.879931 0.716957 2.566986
v -0.879932 -0.560432 2.627748
v 0.336310 -0.955167 2.646525
v 1.087989 0.078262 2.597367
v -0.030120 -0.088096 -0.899927
v 0.029315 0.150783 4.121964
vn -0.3076 0.9502 0.0501
vn -0.9947 0.0049 0.1025
vn -0.3076 -0.9411 0.1401
vn 0.8062 -0.5811 0.1109
vn 0.8062 0.5890 0.0553
vn -0.2671 0.7971 -0.5416
vn -0.8659 -0.0238 -0.4996
vn -0.2671 -0.8449 -0.4635
vn 0.6970 -0.5299 -0.4831
vn 0.6970 0.4817 -0.5312
vn -0.2670 0.8448 0.4637
vn -0.8591 0.0243 0.5112
vn -0.2670 -0.7970 0.5418
vn 0.7055 -0.4888 0.5132
vn 0.7055 0.5353 0.4645
vt 0.669755 0.001741
vt 0.840799 0.001862
vt 0.837962 0.552744
vt 0.669636 0.552267
vt 0.010218 0.000977
vt 0.166132 0.001366
vt 0.163405 0.550904
vt 0.000977 0.551704
vt 0.327975 0.001984
vt 0.330520 0.551305
vt 0.496934 0.001967
vt 0.499884 0.552163
vt 0.816495 0.561869
vt 0.902095 0.825319
vt 0.677991 0.752503
vt 0.539488 0.561869
vt 0.453888 0.825319
vt 0.677991 0.988139
vt 0.089575 0.574814
vt 0.359049 0.572287
vt 0.226052 0.759000
vt 0.444725 0.827790
vt 0.228202 0.988228
vt 0.008707 0.831880
s 0
usemtl Cristal7SG.002
f 1/1/1 2/2/1 7/3/1 6/4/1
f 2/5/2 3/6/2 8/7/2 7/8/2
f 3/6/3 4/9/3 9/10/3 8/7/3
f 4/9/4 5/11/4 10/12/4 9/10/4
f 5/11/5 1/1/5 6/4/5 10/12/5
f 2/13/6 1/14/6 11/15/6
f 3/16/7 2/13/7 11/15/7
f 4/17/8 3/16/8 11/15/8
f 5/18/9 4/17/9 11/15/9
f 1/14/10 5/18/10 11/15/10
f 6/19/11 7/20/11 12/21/11
f 7/20/12 8/22/12 12/21/12
f 8/22/13 9/23/13 12/21/13
f 9/23/14 10/24/14 12/21/14
f 10/24/15 6/19/15 12/21/15
